<svg xmlns="http://www.w3.org/2000/svg" width="800" height="480" viewBox="0 0 800 480" role="img" aria-labelledby="title desc">
  <title id="title">项目界面占位图</title>
  <desc id="desc">用于展示项目卡片的响应式网页布局占位图。</desc>
  <defs>
    <linearGradient id="bg" x1="0" y1="0" x2="1" y2="1">
      <stop offset="0%" stop-color="#020617" />
      <stop offset="100%" stop-color="#0f172a" />
    </linearGradient>
    <linearGradient id="accent" x1="0" y1="0" x2="1" y2="0">
      <stop offset="0%" stop-color="#22d3ee" />
      <stop offset="100%" stop-color="#3b82f6" />
    </linearGradient>
  </defs>
  <rect width="800" height="480" rx="32" fill="url(#bg)" />
  <rect x="56" y="72" width="688" height="40" rx="12" fill="#020617" stroke="#1e293b" stroke-width="2" />
  <circle cx="92" cy="92" r="8" fill="#ef4444" />
  <circle cx="116" cy="92" r="8" fill="#eab308" />
  <circle cx="140" cy="92" r="8" fill="#22c55e" />
  <rect x="96" y="152" width="240" height="200" rx="18" fill="#020617" stroke="#1e293b" />
  <rect x="120" y="176" width="192" height="40" rx="10" fill="#0f172a" />
  <rect x="120" y="232" width="128" height="12" rx="6" fill="#1e293b" />
  <rect x="120" y="252" width="160" height="12" rx="6" fill="#1e293b" />
  <rect x="120" y="272" width="140" height="12" rx="6" fill="#1e293b" />
  <rect x="368" y="152" width="336" height="200" rx="18" fill="#020617" stroke="#1e293b" />
  <rect x="392" y="176" width="288" height="144" rx="12" fill="url(#accent)" opacity="0.14" />
  <polyline points="404,296 444,252 492,276 540,224 588,244 632,208" fill="none" stroke="#3b82f6" stroke-width="3" stroke-linecap="round" stroke-linejoin="round" />
  <circle cx="444" cy="252" r="4" fill="#3b82f6" />
  <circle cx="492" cy="276" r="4" fill="#3b82f6" />
  <circle cx="540" cy="224" r="4" fill="#3b82f6" />
  <circle cx="588" cy="244" r="4" fill="#3b82f6" />
  <rect x="392" y="332" width="80" height="10" rx="5" fill="#1e293b" />
  <rect x="480" y="332" width="96" height="10" rx="5" fill="#1e293b" />
  <rect x="584" y="332" width="72" height="10" rx="5" fill="#1e293b" />
  <rect x="96" y="376" width="560" height="8" rx="4" fill="#0f172a" />
  <rect x="96" y="392" width="400" height="8" rx="4" fill="#0f172a" />
  <rect x="96" y="408" width="320" height="8" rx="4" fill="#0f172a" />
</svg>
